<svg width="40" height="40" viewBox="0 0 40 40" fill="none" xmlns="http://www.w3.org/2000/svg">
<g clip-path="url(#clip0_266_1252)">
<path d="M1.56421 27.007V30.2303C1.56421 33.9555 4.30194 37.0529 7.87101 37.617V40H10.2148V37.709H29.7851V40H32.129V37.617C35.698 37.0529 38.4358 33.9555 38.4358 30.2303V27.007H1.56421Z" fill="#666666"/>
<path d="M3.90774 19.9718V6.44969C3.90774 4.1857 5.7497 2.34383 8.01368 2.34383C10.1104 2.34383 11.8438 3.92383 12.0888 5.95555C9.64814 6.50523 7.81915 8.68891 7.81915 11.2931V12.8559H18.7638V11.2931C18.7638 8.67016 16.9085 6.47344 14.4417 5.94344C14.1823 2.62305 11.3995 0 8.01368 0C4.45728 0 1.56392 2.89328 1.56392 6.44969V19.9718H0.000244141V24.6631H39.9993V19.9718H3.90774Z" fill="#666666"/>
</g>
<defs>
<clipPath id="clip0_266_1252">
<rect width="40" height="40" fill="white"/>
</clipPath>
</defs>
</svg>
