<svg width="41" height="36" viewBox="0 0 41 36" fill="none" xmlns="http://www.w3.org/2000/svg">
<path d="M35.7012 15.9455V4.82365C35.7012 2.56209 33.8613 0.722168 31.5998 0.722168H8.90008C6.63852 0.722168 4.79875 2.56209 4.79875 4.82365V15.9455C2.19281 16.5724 0.25 18.9214 0.25 21.7169V30.0125C0.25 30.6706 0.783516 31.2041 1.44164 31.2041H4.79867V34.0862C4.79867 34.7444 5.33219 35.2779 5.99031 35.2779C6.64844 35.2779 7.18195 34.7444 7.18195 34.0862V31.2041H33.3179V34.0862C33.3179 34.7444 33.8514 35.2779 34.5095 35.2779C35.1677 35.2779 35.7012 34.7444 35.7012 34.0862V31.2041H39.0582C39.7163 31.2041 40.2498 30.6706 40.2498 30.0125V21.7169C40.25 18.9214 38.3072 16.5724 35.7012 15.9455ZM7.18203 4.82365C7.18203 3.87631 7.95281 3.10553 8.90008 3.10553H31.5998C32.5472 3.10553 33.318 3.87631 33.318 4.82365V15.7801H29.3801V13.9001C29.3801 10.7852 26.8459 8.25115 23.7312 8.25115H16.769C13.6541 8.25115 11.1201 10.7853 11.1201 13.9001V15.78H7.18203V4.82365ZM26.9968 13.9001V15.78H13.5032V13.9001C13.5032 12.0994 14.9681 10.6344 16.7688 10.6344H23.7311C25.5317 10.6344 26.9968 12.0994 26.9968 13.9001ZM2.63328 28.8208V21.7169C2.63328 19.7575 4.22742 18.1633 6.18687 18.1633H34.313C36.2724 18.1633 37.8666 19.7575 37.8666 21.7169V28.8208H2.63328Z" fill="#666666"/>
</svg>
