<svg width="38" height="38" viewBox="0 0 38 38" fill="none" xmlns="http://www.w3.org/2000/svg">
<rect x="0.5" y="0.5" width="37" height="37" rx="8.5" fill="white" stroke="#004473"/>
<g clip-path="url(#clip0_321_2519)">
<path d="M26.2323 22.92C25.0241 21.8866 23.7979 21.2607 22.6046 22.2925L21.892 22.9161C21.3706 23.3688 20.4012 25.4839 16.6533 21.1725C12.9062 16.8665 15.1361 16.1961 15.6582 15.7473L16.3747 15.1229C17.5618 14.0888 17.1138 12.7869 16.2576 11.4468L15.741 10.6351C14.8809 9.29815 13.9443 8.4201 12.754 9.45268L12.1109 10.0146C11.5849 10.3979 10.1144 11.6435 9.75773 14.01C9.32846 16.8494 10.6826 20.1009 13.785 23.6685C16.8836 27.2377 19.9173 29.0304 22.7911 28.9992C25.1794 28.9735 26.6217 27.6919 27.0729 27.2259L27.7183 26.6632C28.9054 25.6314 28.1679 24.5809 26.9589 23.5452L26.2323 22.92Z" fill="#004473"/>
</g>
<defs>
<clipPath id="clip0_321_2519">
<rect width="20" height="20" fill="white" transform="translate(9 9)"/>
</clipPath>
</defs>
</svg>
