<svg width="17" height="18" viewBox="0 0 17 18" fill="none" xmlns="http://www.w3.org/2000/svg">
<path d="M15.3778 14.8721L11.5528 11.0542C12.3298 10.0642 12.7514 8.84179 12.7498 7.58333C12.7498 6.46256 12.4175 5.36697 11.7948 4.43509C11.1722 3.50322 10.2872 2.7769 9.25171 2.34801C8.21626 1.91911 7.07689 1.80689 5.97766 2.02554C4.87844 2.24419 3.86873 2.78389 3.07623 3.57639C2.28374 4.36888 1.74404 5.37859 1.52539 6.47781C1.30674 7.57704 1.41896 8.71642 1.84786 9.75186C2.27675 10.7873 3.00306 11.6723 3.93494 12.295C4.86682 12.9176 5.96241 13.25 7.08317 13.25C8.34164 13.2516 9.56408 12.8299 10.554 12.0529L14.3719 15.8779C14.4378 15.9443 14.5161 15.997 14.6024 16.033C14.6887 16.0689 14.7813 16.0874 14.8748 16.0874C14.9683 16.0874 15.0609 16.0689 15.1472 16.033C15.2336 15.997 15.3119 15.9443 15.3778 15.8779C15.4441 15.8121 15.4968 15.7337 15.5328 15.6474C15.5688 15.5611 15.5873 15.4685 15.5873 15.375C15.5873 15.2815 15.5688 15.1889 15.5328 15.1026C15.4968 15.0163 15.4441 14.9379 15.3778 14.8721ZM2.83317 7.58333C2.83317 6.74275 3.08243 5.92106 3.54943 5.22215C4.01642 4.52324 4.68018 3.97851 5.45677 3.65684C6.23335 3.33517 7.08789 3.251 7.91231 3.41499C8.73673 3.57898 9.494 3.98375 10.0884 4.57812C10.6827 5.1725 11.0875 5.92977 11.2515 6.75419C11.4155 7.57861 11.3313 8.43314 11.0097 9.20973C10.688 9.98632 10.1433 10.6501 9.44435 11.1171C8.74544 11.5841 7.92374 11.8333 7.08317 11.8333C5.956 11.8333 4.875 11.3856 4.07797 10.5885C3.28094 9.7915 2.83317 8.7105 2.83317 7.58333Z" fill="#03669C"/>
</svg>
