<svg width="41" height="40" viewBox="0 0 41 40" fill="none" xmlns="http://www.w3.org/2000/svg">
<g clip-path="url(#clip0_266_1267)">
<path d="M38.9375 4.45312H33V3.04688C33 2.18391 32.3005 1.48438 31.4375 1.48438C30.5745 1.48438 29.875 2.18391 29.875 3.04688V4.45312H22.0625V3.04688C22.0625 2.18391 21.363 1.48438 20.5 1.48438C19.637 1.48438 18.9375 2.18391 18.9375 3.04688V4.45312H11.125V3.04688C11.125 2.18391 10.4255 1.48438 9.5625 1.48438C8.69953 1.48438 8 2.18391 8 3.04688V4.45312H2.0625C1.19953 4.45312 0.5 5.15266 0.5 6.01562V36.9531C0.5 37.8161 1.19953 38.5156 2.0625 38.5156H38.9375C39.8005 38.5156 40.5 37.8161 40.5 36.9531V6.01562C40.5 5.15266 39.8005 4.45312 38.9375 4.45312ZM37.375 35.3906H3.625V16.7969H37.375V35.3906ZM37.375 13.6719H3.625V7.57812H8V8.98438C8 9.84734 8.69953 10.5469 9.5625 10.5469C10.4255 10.5469 11.125 9.84734 11.125 8.98438V7.57812H18.9375V8.98438C18.9375 9.84734 19.637 10.5469 20.5 10.5469C21.363 10.5469 22.0625 9.84734 22.0625 8.98438V7.57812H29.875V8.98438C29.875 9.84734 30.5745 10.5469 31.4375 10.5469C32.3005 10.5469 33 9.84734 33 8.98438V7.57812H37.375V13.6719Z" fill="#666666"/>
</g>
<defs>
<clipPath id="clip0_266_1267">
<rect width="40" height="40" fill="white" transform="translate(0.5)"/>
</clipPath>
</defs>
</svg>
