<svg width="34" height="37" viewBox="0 0 34 37" fill="none" xmlns="http://www.w3.org/2000/svg">
<path d="M30.0184 25.556C27.8436 23.6959 25.6366 22.5692 23.4885 24.4264L22.2058 25.5489C21.2674 26.3638 19.5225 30.171 12.7763 22.4104C6.03149 14.6597 10.0452 13.4529 10.9851 12.6451L12.2748 11.5212C14.4116 9.65976 13.6052 7.31643 12.064 4.90425L11.134 3.44318C9.58583 1.03662 7.89997 -0.543864 5.75753 1.31479L4.59992 2.3263C3.65303 3.0161 1.00624 5.25828 0.364208 9.51787C-0.408474 14.6288 2.02899 20.4815 7.61338 26.9032C13.1907 33.3277 18.6515 36.5547 23.8243 36.4986C28.1232 36.4522 30.7194 34.1454 31.5314 33.3067L32.6933 32.2938C34.8301 30.4365 33.5025 28.5455 31.3263 26.6813L30.0184 25.556Z" fill="#03669C"/>
</svg>
