<svg width="18" height="20" viewBox="0 0 18 20" fill="none" xmlns="http://www.w3.org/2000/svg">
<g clip-path="url(#clip0_2019_933)">
<path d="M8.38782 15.651H11.8221V17.1588H8.38782V15.651Z" fill="#666666"/>
<path d="M15.614 1.30273H14.0265V3.0559L15.614 4.49645V1.30273Z" fill="#666666"/>
<path d="M2.1106 9.83242V19.8868H5.20588V17.1588H7.41128V14.4791H9.61668V11.7698H11.8221V9.07539H15.2318L9.16369 3.60938L2.1106 9.83242Z" fill="#666666"/>
<path d="M6.18237 18.3307H9.61662V19.8867H6.18237V18.3307Z" fill="#666666"/>
<path d="M10.5933 18.3307H14.0275V19.8867H10.5933V18.3307Z" fill="#666666"/>
<path d="M0.833374 7.57145V8.77945H1.65551L9.16973 2.14953L16.5299 8.77945H17.5V7.67727L9.16469 0.113281L0.833374 7.57145Z" fill="#666666"/>
<path d="M15.004 18.3307H16.2228V19.8867H15.004V18.3307Z" fill="#666666"/>
<path d="M12.7986 10.2473H16.2227V11.7699H12.7986V10.2473Z" fill="#666666"/>
<path d="M10.5933 12.9418H14.0275V14.4792H10.5933V12.9418Z" fill="#666666"/>
<path d="M12.7986 15.651H16.2227V17.1588H12.7986V15.651Z" fill="#666666"/>
<path d="M15.004 12.9418H16.2228V14.4792H15.004V12.9418Z" fill="#666666"/>
</g>
<defs>
<clipPath id="clip0_2019_933">
<rect width="16.6667" height="20" fill="white" transform="translate(0.833374)"/>
</clipPath>
</defs>
</svg>
