<svg width="20" height="20" viewBox="0 0 20 20" fill="none" xmlns="http://www.w3.org/2000/svg">
<path d="M16.9452 4.15109L13.1787 0.587734C12.7781 0.208711 12.2537 0 11.7022 0H4.53125C3.3466 0 2.38281 0.963789 2.38281 2.14844V17.8516C2.38281 19.0362 3.3466 20 4.53125 20H15.4688C16.6534 20 17.6172 19.0362 17.6172 17.8516V5.7118C17.6172 5.12395 17.3723 4.55508 16.9452 4.15109ZM15.8071 4.6875H12.8906C12.7829 4.6875 12.6953 4.59988 12.6953 4.49219V1.74359L15.8071 4.6875ZM15.4688 18.8281H4.53125C3.99277 18.8281 3.55469 18.39 3.55469 17.8516V2.14844C3.55469 1.60996 3.99277 1.17188 4.53125 1.17188H11.5234V4.49219C11.5234 5.24605 12.1368 5.85938 12.8906 5.85938H16.4453V17.8516C16.4453 18.39 16.0072 18.8281 15.4688 18.8281Z" fill="#002D4D"/>
<path d="M14.1797 7.8125H5.58594C5.26234 7.8125 5 8.07484 5 8.39844C5 8.72203 5.26234 8.98438 5.58594 8.98438H14.1797C14.5033 8.98438 14.7656 8.72203 14.7656 8.39844C14.7656 8.07484 14.5033 7.8125 14.1797 7.8125Z" fill="#002D4D"/>
<path d="M14.1797 10.9375H5.58594C5.26234 10.9375 5 11.1998 5 11.5234C5 11.847 5.26234 12.1094 5.58594 12.1094H14.1797C14.5033 12.1094 14.7656 11.847 14.7656 11.5234C14.7656 11.1998 14.5033 10.9375 14.1797 10.9375Z" fill="#666666"/>
<path d="M8.42656 14.0625H5.58594C5.26234 14.0625 5 14.3248 5 14.6484C5 14.972 5.26234 15.2344 5.58594 15.2344H8.42656C8.75016 15.2344 9.0125 14.972 9.0125 14.6484C9.0125 14.3248 8.75016 14.0625 8.42656 14.0625Z" fill="#666666"/>
</svg>
