<svg width="40" height="41" viewBox="0 0 40 41" fill="none" xmlns="http://www.w3.org/2000/svg">
<path d="M25.3174 19.1233L39.4607 10.4017C39.2781 10.2842 39.0614 10.2153 38.8282 10.2153H11.8066C11.5734 10.2153 11.3567 10.2842 11.1742 10.4017L25.3174 19.1233Z" fill="white"/>
<path d="M27.747 20.3784L25.9325 21.4974C25.7439 21.6137 25.5307 21.6718 25.3174 21.6718C25.1041 21.6718 24.8908 21.6137 24.7022 21.4974L22.8877 20.3784L11.455 30.7308C11.566 30.7657 11.684 30.7847 11.8065 30.7847H38.8281C38.9506 30.7847 39.0686 30.7658 39.1796 30.7308L27.747 20.3784Z" fill="white"/>
<path d="M40 28.3119V12.8225L29.8242 19.0976L40 28.3119Z" fill="white"/>
<path d="M10.6346 12.8225V28.3119L20.8104 19.0976L10.6346 12.8225Z" fill="white"/>
<path d="M7.11906 26.3594H3.51562C2.86844 26.3594 2.34375 25.8347 2.34375 25.1875C2.34375 24.5403 2.86844 24.0156 3.51562 24.0156H7.11906C7.76625 24.0156 8.29094 24.5403 8.29094 25.1875C8.29094 25.8347 7.76625 26.3594 7.11906 26.3594Z" fill="white"/>
<path d="M7.11906 21.6719H1.17188C0.524687 21.6719 0 21.1472 0 20.5C0 19.8528 0.524687 19.3281 1.17188 19.3281H7.11906C7.76625 19.3281 8.29094 19.8528 8.29094 20.5C8.29094 21.1472 7.76625 21.6719 7.11906 21.6719Z" fill="white"/>
<path d="M7.11906 16.9844H3.51562C2.86844 16.9844 2.34375 16.4597 2.34375 15.8125C2.34375 15.1653 2.86844 14.6406 3.51562 14.6406H7.11906C7.76625 14.6406 8.29094 15.1653 8.29094 15.8125C8.29094 16.4597 7.76625 16.9844 7.11906 16.9844Z" fill="white"/>
</svg>
