<svg width="36" height="37" viewBox="0 0 36 37" fill="none" xmlns="http://www.w3.org/2000/svg">
<path d="M32.8359 5.84375H3.16406C1.42298 5.84375 0 7.26048 0 9.00781V27.9922C0 29.7402 1.4239 31.1562 3.16406 31.1562H32.8359C34.577 31.1562 36 29.7395 36 27.9922V9.00781C36 7.26005 34.5763 5.84375 32.8359 5.84375ZM32.3501 7.95312C31.3271 8.97948 19.311 21.0348 18.8173 21.53C18.405 21.9436 17.5952 21.9439 17.1827 21.53L3.64992 7.95312H32.3501ZM2.10938 27.6044V9.39559L11.1843 18.5L2.10938 27.6044ZM3.64992 29.0469L12.6734 19.994L15.6888 23.0192C16.9244 24.2589 19.0761 24.2584 20.3113 23.0192L23.3267 19.9941L32.3501 29.0469H3.64992ZM33.8906 27.6044L24.8157 18.5L33.8906 9.39559V27.6044Z" fill="#002D4D"/>
</svg>
