<svg width="18" height="12" viewBox="0 0 18 12" fill="none" xmlns="http://www.w3.org/2000/svg">
<path d="M15.5667 0H1.5C0.6746 0 0 0.671633 0 1.5V10.5C0 11.3287 0.675033 12 1.5 12H15.5667C16.3921 12 17.0667 11.3284 17.0667 10.5V1.5C17.0667 0.671433 16.3917 0 15.5667 0ZM15.3363 1C14.8514 1.48657 9.15483 7.20167 8.9208 7.43647C8.72533 7.63253 8.34143 7.63267 8.14587 7.43647L1.73033 1H15.3363ZM1 10.3162V1.68383L5.30217 6L1 10.3162ZM1.73033 11L6.00813 6.70827L7.43763 8.14243C8.02343 8.73013 9.04347 8.7299 9.62907 8.14243L11.0586 6.7083L15.3363 11H1.73033ZM16.0667 10.3162L11.7645 6L16.0667 1.68383V10.3162Z" fill="#999999"/>
</svg>
