<svg width="41" height="40" viewBox="0 0 41 40" fill="none" xmlns="http://www.w3.org/2000/svg">
<path d="M39.9688 6.25C40.4002 6.25 40.75 5.90023 40.75 5.46875V0.78125C40.75 0.349766 40.4002 0 39.9688 0H35.2812C34.8498 0 34.5 0.349766 34.5 0.78125V2.34375H7V0.78125C7 0.349766 6.65023 0 6.21875 0H1.53125C1.09977 0 0.75 0.349766 0.75 0.78125V5.46875C0.75 5.90023 1.09977 6.25 1.53125 6.25H3.09375V33.75H1.53125C1.09977 33.75 0.75 34.0998 0.75 34.5312V39.2188C0.75 39.6502 1.09977 40 1.53125 40H6.21875C6.65023 40 7 39.6502 7 39.2188V37.6562H34.4999V39.2188C34.4999 39.6502 34.8497 40 35.2812 40H39.9687C40.4002 40 40.7499 39.6502 40.7499 39.2188V34.5312C40.7499 34.0998 40.4002 33.75 39.9687 33.75H38.4062V6.25H39.9688ZM36.0624 1.5625H39.1874V4.6875H36.0624V1.5625ZM2.3125 1.5625H5.4375V4.6875H2.3125V1.5625ZM5.4375 38.4375H2.3125V35.3125H5.4375V38.4375ZM39.1875 38.4375H36.0625V35.3125H39.1875V38.4375ZM36.8438 9.84375H14.5001V8.28125C14.5001 7.84977 14.1503 7.5 13.7188 7.5H9.03133C8.59984 7.5 8.25008 7.84977 8.25008 8.28125V12.9688C8.25008 13.4002 8.59984 13.75 9.03133 13.75H10.5938V21.406C10.5938 21.8375 10.9436 22.1873 11.3751 22.1873C11.8066 22.1873 12.1563 21.8375 12.1563 21.406V13.75H13.7188C14.1503 13.75 14.5001 13.4002 14.5001 12.9688V11.4062H36.8438V33.75H35.2812C34.8498 33.75 34.5 34.0998 34.5 34.5312V36.0938H12.1562V28.4373C12.1562 28.0058 11.8065 27.656 11.375 27.656C10.9435 27.656 10.5938 28.0058 10.5938 28.4373V36.0938H7V34.5312C7 34.0998 6.65023 33.75 6.21875 33.75H4.65625V6.25H6.21875C6.65023 6.25 7 5.90023 7 5.46875V3.90625H34.4999V5.46875C34.4999 5.90023 34.8497 6.25 35.2812 6.25H36.8437V9.84375H36.8438ZM9.8125 12.1875V9.0625H12.9375V12.1875H9.8125Z" fill="#666666"/>
<path d="M16.4345 19.2279C16.866 19.2279 17.2157 18.8782 17.2157 18.4467V17.5707L30.6793 31.0342H29.8032C29.3718 31.0342 29.022 31.3839 29.022 31.8154C29.022 32.2469 29.3718 32.5967 29.8032 32.5967H32.5654C32.9968 32.5967 33.3466 32.2469 33.3466 31.8154V29.0533C33.3466 28.6218 32.9968 28.2721 32.5654 28.2721C32.1339 28.2721 31.7841 28.6218 31.7841 29.0533V29.9293L18.3207 16.4658H19.1967C19.6282 16.4658 19.9779 16.1161 19.9779 15.6846C19.9779 15.2531 19.6282 14.9033 19.1967 14.9033H16.4346C16.0031 14.9033 15.6533 15.2531 15.6533 15.6846V18.4467C15.6532 18.8782 16.0031 19.2279 16.4345 19.2279Z" fill="#666666"/>
<path d="M11.375 25.7031C11.8065 25.7031 12.1562 25.3533 12.1562 24.9219V24.9213C12.1562 24.4898 11.8065 24.1404 11.375 24.1404C10.9435 24.1404 10.5938 24.4904 10.5938 24.9219C10.5938 25.3533 10.9435 25.7031 11.375 25.7031Z" fill="#666666"/>
</svg>
