<svg width="16" height="20" viewBox="0 0 16 20" fill="none" xmlns="http://www.w3.org/2000/svg">
<path d="M6.48976 0.157448C3.8425 0.710613 1.69601 2.83655 1.13121 5.50026C0.654292 7.74956 1.24199 10.0078 2.74359 11.6958C3.47761 12.521 3.89855 13.6101 3.89855 14.6871V15.859C3.89855 16.6387 4.40898 17.3011 5.11312 17.5305C5.34468 18.8987 6.53218 19.9996 8.00011 19.9996C9.46765 19.9996 10.6555 18.899 10.8871 17.5305C11.5912 17.3011 12.1017 16.6387 12.1017 15.859V14.6871C12.1017 13.608 12.524 12.5319 13.2908 11.6571C14.4132 10.3766 15.0314 8.73362 15.0314 7.03089C15.0314 2.59475 10.9709 -0.778723 6.48976 0.157448ZM8.00011 18.8278C7.24691 18.8278 6.58652 18.3095 6.34265 17.6129H9.65753C9.41371 18.3095 8.75332 18.8278 8.00011 18.8278ZM10.9298 15.859C10.9298 16.1821 10.6669 16.4449 10.3439 16.4449H5.65636C5.33328 16.4449 5.07043 16.1821 5.07043 15.859V15.2731H10.9298V15.859ZM12.4096 10.8847C11.5924 11.817 11.0896 12.9412 10.962 14.1012H5.03832C4.91089 12.9406 4.40941 11.8053 3.61925 10.917C2.36777 9.51011 1.87875 7.62436 2.27761 5.74335C2.7432 3.54749 4.53226 1.7637 6.72949 1.3046C10.4804 0.52073 13.8595 3.3376 13.8595 7.03089C13.8595 8.44932 13.3446 9.81796 12.4096 10.8847Z" fill="#002D4D"/>
</svg>
