<svg width="13" height="14" viewBox="0 0 13 14" fill="none" xmlns="http://www.w3.org/2000/svg">
<path d="M11.544 9.74421C10.7013 9.02084 9.84619 8.58267 9.0139 9.30494L8.51691 9.74148C8.1533 10.0584 7.47723 11.539 4.86332 8.52093C2.24995 5.50673 3.80512 5.03742 4.16929 4.72326L4.66899 4.28618C5.49693 3.56227 5.18448 2.65096 4.58734 1.71288L4.22699 1.14468C3.62713 0.208785 2.97392 -0.405858 2.1438 0.316962L1.69527 0.710333C1.32839 0.97859 0.302852 1.85056 0.0540895 3.50709C-0.245297 5.49471 0.69913 7.7708 2.86287 10.2682C5.0239 12.7666 7.13974 14.0216 9.14399 13.9997C10.8097 13.9817 11.8156 13.0846 12.1302 12.7584L12.5804 12.3645C13.4083 11.6422 12.8939 10.9068 12.0508 10.1818L11.544 9.74421Z" fill="#999999"/>
</svg>
