<svg width="41" height="40" viewBox="0 0 41 40" fill="none" xmlns="http://www.w3.org/2000/svg">
<g clip-path="url(#clip0_242_1238)">
<path d="M36.2489 8.98062C36.2489 8.31078 35.9878 7.68125 35.5138 7.20781C35.5138 7.20773 35.5138 7.20773 35.5137 7.20773L29.0286 0.731714C28.0513 -0.244145 26.4613 -0.243989 25.4842 0.731714L1.23523 24.9466C0.761094 25.4201 0.5 26.0498 0.5 26.7197C0.5 27.3895 0.761094 28.0191 1.23523 28.4926L7.72031 34.9685C8.20898 35.4566 8.8507 35.7005 9.49258 35.7005C10.1344 35.7005 10.7762 35.4565 11.2648 34.9686L35.5139 10.7536C35.9878 10.2801 36.2489 9.65046 36.2489 8.98062ZM33.8577 9.09507L32.377 10.5737L30.4802 8.67945C30.0222 8.22203 29.2803 8.22265 28.8229 8.6807C28.3655 9.13875 28.3661 9.8807 28.8241 10.338L30.7187 12.2298L29.1234 13.8229L27.2266 11.9287C26.7687 11.4713 26.0268 11.4718 25.5693 11.9299C25.112 12.388 25.1125 13.1299 25.5705 13.5873L27.465 15.4791L25.8698 17.0721L23.9729 15.178C23.5149 14.7205 22.773 14.7212 22.3156 15.1792C21.8583 15.6373 21.8588 16.3792 22.3169 16.8366L24.2113 18.7284L22.6161 20.3213L20.7192 18.4271C20.2613 17.9698 19.5195 17.9702 19.062 18.4284C18.6046 18.8864 18.6052 19.6284 19.0632 20.0857L20.9577 21.9775L19.3621 23.5702L17.4652 21.6761C17.0073 21.2187 16.2654 21.2193 15.808 21.6773C15.3506 22.1354 15.3512 22.8773 15.8092 23.3347L17.7037 25.2265L16.1084 26.8195L14.2116 24.9254C13.7536 24.468 13.0117 24.4685 12.5543 24.9266C12.097 25.3847 12.0975 26.1266 12.5555 26.584L14.45 28.4757L12.8548 30.0687L10.9579 28.1744C10.5 27.717 9.75813 27.7176 9.30062 28.1757C8.84328 28.6337 8.84383 29.3757 9.30188 29.833L11.1963 31.7248L9.60859 33.3101C9.54469 33.3738 9.44055 33.3739 9.37641 33.31L2.89125 26.834C2.85195 26.7948 2.84375 26.7502 2.84375 26.7196C2.84375 26.689 2.85195 26.6444 2.89125 26.6052L27.1402 2.39031C27.1723 2.35835 27.2143 2.34234 27.2563 2.34234C27.2984 2.34234 27.3405 2.35835 27.3725 2.39031L33.8576 8.86632C33.8969 8.90554 33.9051 8.95015 33.9051 8.9807C33.9052 9.01125 33.8969 9.05585 33.8577 9.09507Z" fill="#666666"/>
<path d="M39.3281 15.9951H35.0117C34.3645 15.9951 33.8398 16.5198 33.8398 17.1671C33.8398 17.8143 34.3645 18.339 35.0117 18.339H36.4961L18.8086 36.0018V34.5177C18.8086 33.8705 18.2839 33.3457 17.6367 33.3457C16.9895 33.3457 16.4648 33.8704 16.4648 34.5177V38.8282C16.4648 39.4753 16.9895 40.0001 17.6367 40.0001H21.9531C22.6003 40.0001 23.125 39.4754 23.125 38.8282C23.125 38.181 22.6003 37.6562 21.9531 37.6562H20.4688L38.1562 19.9934V21.4774C38.1562 22.1246 38.6809 22.6493 39.3281 22.6493C39.9753 22.6493 40.5 22.1246 40.5 21.4774V17.167C40.5 16.5198 39.9753 15.9951 39.3281 15.9951Z" fill="#666666"/>
</g>
<defs>
<clipPath id="clip0_242_1238">
<rect width="40" height="40" fill="white" transform="translate(0.5)"/>
</clipPath>
</defs>
</svg>
