<svg width="40" height="41" viewBox="0 0 40 41" fill="none" xmlns="http://www.w3.org/2000/svg">
<path d="M38.4339 20.8137C37.571 20.8137 36.8715 20.1143 36.8715 19.2514C36.8715 10.6368 29.863 3.62823 21.2483 3.62823C20.3855 3.62823 19.686 2.92878 19.686 2.06591C19.686 1.20304 20.3855 0.503589 21.2483 0.503589C31.3256 0.29541 40.2045 9.17423 39.996 19.2516C39.9962 20.1143 39.2967 20.8137 38.4339 20.8137ZM27.4976 19.2514C27.4976 15.8056 24.6942 13.0021 21.2483 13.0021C20.3855 13.0021 19.686 13.7016 19.686 14.5645C19.686 15.4273 20.3855 16.1268 21.2483 16.1268C22.9713 16.1268 24.373 17.5285 24.373 19.2514C24.373 20.1143 25.0724 20.8137 25.9353 20.8137C26.7982 20.8137 27.4976 20.1143 27.4976 19.2514ZM33.7469 19.2514C33.7469 12.3597 28.1401 6.75287 21.2483 6.75287C20.3855 6.75287 19.686 7.45232 19.686 8.31519C19.686 9.17806 20.3855 9.87751 21.2483 9.87751C26.4171 9.87751 30.6223 14.0826 30.6223 19.2514C30.6223 20.1143 31.3217 20.8137 32.1846 20.8137C33.0474 20.8137 33.7469 20.1143 33.7469 19.2514ZM27.5317 40.4994C27.9339 40.4904 28.3172 40.3267 28.6017 40.0422L34.2261 34.4178C34.8361 33.8076 34.8361 32.8185 34.2261 32.2084L25.731 23.7133C25.1209 23.1031 24.1316 23.1031 23.5215 23.7133L21.4027 25.8321C19.2833 24.8132 15.6479 21.1645 14.6621 19.049L16.7597 16.9515C17.3649 16.3697 17.3649 15.3238 16.7597 14.742L8.21343 6.19567C7.60327 5.5855 6.61409 5.5855 6.004 6.19567L0.457764 11.7419C0.171234 12.0284 0.00719059 12.4151 0.000394497 12.8203C-0.0238215 24.2714 15.5056 40.3568 27.4625 40.5C27.4957 40.5 27.519 40.4996 27.5317 40.4994ZM7.10872 9.5099L13.4456 15.8467L11.7064 17.5859C11.3124 17.9799 11.158 18.5541 11.3014 19.0926C12.1217 22.3915 18.116 28.3778 21.3505 29.1979C21.8894 29.3426 22.4653 29.1886 22.8602 28.7937L24.6262 27.0276L30.9118 33.3132L26.881 37.3439C18.2164 36.8363 4.28162 24.7908 3.16128 13.4573L7.10872 9.5099Z" fill="white"/>
</svg>
