<svg width="18" height="16" viewBox="0 0 18 16" fill="none" xmlns="http://www.w3.org/2000/svg">
<path d="M15.8685 3.3125H13.7526V2.14062H14.5664C14.8361 2.14062 15.0547 1.87828 15.0547 1.55469C15.0547 1.23109 14.8361 0.96875 14.5664 0.96875H11.9623C11.6926 0.96875 11.474 1.23109 11.474 1.55469C11.474 1.87828 11.6926 2.14062 11.9623 2.14062H12.7761V3.3125H2.13153C1.32382 3.3125 0.666687 4.10105 0.666687 5.07031V10.9297C0.666687 11.8989 1.32382 12.6875 2.13153 12.6875H12.7761V13.8594H11.9623C11.6926 13.8594 11.474 14.1217 11.474 14.4453C11.474 14.7689 11.6926 15.0312 11.9623 15.0312H14.5664C14.8361 15.0312 15.0547 14.7689 15.0547 14.4453C15.0547 14.1217 14.8361 13.8594 14.5664 13.8594H13.7526V12.6875H15.8685C16.6762 12.6875 17.3334 11.8989 17.3334 10.9297V5.07031C17.3334 4.10105 16.6762 3.3125 15.8685 3.3125ZM12.7761 11.5156H2.13153C1.86229 11.5156 1.64325 11.2528 1.64325 10.9297V5.07031C1.64325 4.74723 1.86229 4.48438 2.13153 4.48438H12.7761V11.5156ZM16.3568 10.9297C16.3568 11.2528 16.1377 11.5156 15.8685 11.5156H13.7526V4.48438H15.8685C16.1377 4.48438 16.3568 4.74723 16.3568 5.07031V10.9297Z" fill="#666666"/>
</svg>
