<svg width="20" height="20" viewBox="0 0 20 20" fill="none" xmlns="http://www.w3.org/2000/svg">
<path d="M15.3969 4.66664C15.2198 3.44125 14.6312 2.31441 13.7158 1.46187C12.7036 0.51918 11.3839 0 10 0C8.61606 0 7.29645 0.51918 6.28418 1.46187C5.36879 2.31441 4.78023 3.44125 4.60305 4.66664C2.63137 5.52758 1.33105 7.4916 1.33105 9.66574C1.33105 12.6727 3.77742 15.1191 6.78438 15.1191C7.71113 15.1191 8.6143 14.8834 9.41398 14.443V20H10.5859V14.443C11.3855 14.8834 12.2887 15.1191 13.2155 15.1191C16.2225 15.1191 18.6688 12.6727 18.6688 9.66574C18.6689 7.4916 17.3686 5.52754 15.3969 4.66664ZM13.2155 13.9472C12.2595 13.9472 11.3355 13.628 10.5859 13.044V9.46L13.214 8.07816L12.6686 7.04094L10.5859 8.13602V5.8293H9.41406V10.7334L7.33137 9.63832L6.78598 10.6755L9.41406 12.0574V13.044C8.66453 13.628 7.74047 13.9472 6.78445 13.9472C4.42363 13.9472 2.50301 12.0265 2.50301 9.66574C2.50301 7.86062 3.64465 6.23996 5.34383 5.63289L5.70227 5.50484L5.73094 5.12531C5.81211 4.0523 6.29223 3.05582 7.08289 2.31945C7.87746 1.57941 8.91348 1.17188 10 1.17188C11.0865 1.17188 12.1225 1.57941 12.9171 2.31941C13.7078 3.05578 14.1879 4.05223 14.2691 5.12527L14.2978 5.5048L14.6562 5.63285C16.3554 6.23992 17.497 7.86059 17.497 9.6657C17.497 12.0265 15.5764 13.9472 13.2155 13.9472Z" fill="#002D4D"/>
</svg>
