<svg width="22" height="29" viewBox="0 0 22 29" fill="none" xmlns="http://www.w3.org/2000/svg">
<path d="M11 0C5.37719 0 0.6875 4.52938 0.6875 10.3125C0.6875 12.5126 1.34862 14.4745 2.61744 16.3129L10.2108 28.1616C10.5792 28.7376 11.4216 28.7365 11.7892 28.1616L19.4155 16.2726C20.657 14.5175 21.3125 12.4567 21.3125 10.3125C21.3125 4.62619 16.6863 0 11 0ZM11 15C8.41544 15 6.3125 12.8971 6.3125 10.3125C6.3125 7.72794 8.41544 5.625 11 5.625C13.5846 5.625 15.6875 7.72794 15.6875 10.3125C15.6875 12.8971 13.5846 15 11 15Z" fill="#666666"/>
</svg>
