<svg width="36" height="37" viewBox="0 0 36 37" fill="none" xmlns="http://www.w3.org/2000/svg">
<g clip-path="url(#clip0_242_832)">
<path d="M17.1271 0.520941C7.61955 0.973637 0.116748 8.8916 0.145591 18.4099C0.154373 21.309 0.854252 24.0453 2.08888 26.4631L0.193288 35.6645C0.0907472 36.1622 0.539655 36.598 1.03411 36.4809L10.0504 34.3448C12.3668 35.4986 14.9687 36.1651 17.7223 36.2071C27.4399 36.3555 35.5427 28.6395 35.8456 18.9255C36.1703 8.51268 27.5763 0.023303 17.1271 0.520941ZM27.8855 28.2402C25.245 30.8807 21.7342 32.3348 18 32.3348C15.8135 32.3348 13.7202 31.8443 11.7779 30.8768L10.5223 30.2513L4.99438 31.561L6.15797 25.9125L5.53937 24.7011C4.53109 22.7265 4.01985 20.5912 4.01985 18.3546C4.01985 14.6204 5.47402 11.1097 8.11452 8.46912C10.7314 5.85221 14.2994 4.37437 18.0003 4.37437C21.7345 4.37445 25.2451 5.82862 27.8856 8.46903C30.5261 11.1095 31.9802 14.6202 31.9803 18.3544C31.9802 22.0553 30.5024 25.6234 27.8855 28.2402Z" fill="#2ECC71"/>
<path d="M26.665 22.2266L23.2066 21.2336C22.7519 21.103 22.2623 21.232 21.931 21.5696L21.0853 22.4313C20.7287 22.7946 20.1876 22.9113 19.7156 22.7204C18.0796 22.0583 14.6381 18.9984 13.7592 17.4679C13.5057 17.0264 13.5476 16.4744 13.8589 16.0716L14.5973 15.1163C14.8866 14.7421 14.9476 14.2394 14.7563 13.8068L13.3013 10.5159C12.9528 9.7277 11.9455 9.49826 11.2875 10.0548C10.3223 10.8712 9.17701 12.1117 9.03779 13.4861C8.79233 15.9092 9.83152 18.9637 13.7612 22.6314C18.3011 26.8687 21.9366 27.4285 24.3037 26.8551C25.6463 26.5299 26.7192 25.2262 27.3963 24.1588C27.858 23.431 27.4935 22.4645 26.665 22.2266Z" fill="#2ECC71"/>
</g>
<defs>
<clipPath id="clip0_242_832">
<rect width="36" height="36" fill="white" transform="translate(0 0.5)"/>
</clipPath>
</defs>
</svg>
