<svg width="45" height="45" viewBox="0 0 45 45" fill="none" xmlns="http://www.w3.org/2000/svg">
<path fill-rule="evenodd" clip-rule="evenodd" d="M5.30272 1.43492C5.79482 0.943522 6.38573 0.562325 7.03628 0.31659C7.68684 0.0708558 8.38218 -0.033805 9.07624 0.00954385C9.7703 0.0528927 10.4472 0.243261 11.0622 0.568034C11.6771 0.892807 12.216 1.34457 12.6431 1.89338L17.6914 8.3793C18.6167 9.56904 18.9429 11.1188 18.5773 12.5814L17.0389 18.741C16.9599 19.0601 16.9645 19.3941 17.0522 19.7109C17.1399 20.0277 17.3077 20.3165 17.5395 20.5495L24.4496 27.4602C24.6829 27.6925 24.9722 27.8606 25.2895 27.9483C25.6068 28.036 25.9414 28.0403 26.2608 27.9608L32.4172 26.4223C33.139 26.2429 33.892 26.2294 34.6198 26.3829C35.3475 26.5363 36.031 26.8527 36.6189 27.3083L43.1043 32.3541C45.4358 34.1683 45.6496 37.6138 43.5628 39.6979L40.6547 42.6062C38.5736 44.6875 35.463 45.6016 32.5634 44.5806C25.1406 41.9722 18.4016 37.7228 12.8484 32.1488C7.27527 26.596 3.02622 19.8576 0.417561 12.4351C-0.600532 9.5381 0.313502 6.42452 2.39469 4.34318L5.30272 1.43492Z" fill="#0F5F9C"/>
</svg>
