<svg width="44" height="35" viewBox="0 0 44 35" fill="none" xmlns="http://www.w3.org/2000/svg">
<path d="M43.6673 9.984V27.625C43.6674 29.4236 42.9793 31.1541 41.744 32.4615C40.5088 33.7689 38.8201 34.554 37.0243 34.6558L36.6256 34.6667H7.37565C5.57702 34.6668 3.84652 33.9786 2.53915 32.7434C1.23178 31.5081 0.446648 29.8194 0.344818 28.0237L0.333984 27.625V9.984L21.2467 20.9387C21.4793 21.0605 21.738 21.1242 22.0006 21.1242C22.2633 21.1242 22.522 21.0605 22.7546 20.9387L43.6673 9.984ZM7.37565 5.11444e-08H36.6256C38.3711 -0.000210198 40.0544 0.647824 41.3491 1.81841C42.6438 2.989 43.4576 4.59871 43.6326 6.33533L22.0006 17.667L0.368651 6.33533C0.536618 4.66768 1.29393 3.11462 2.50444 1.95534C3.71496 0.796052 5.29929 0.106572 6.97265 0.0108336L7.37565 5.11444e-08Z" fill="#0F5F9C"/>
</svg>
